<?xml version="1.0" encoding="iso-8859-1"?>
<!-- Generator: Adobe Illustrator 19.0.0, SVG Export Plug-In . SVG Version: 6.00 Build 0)  -->
<svg xmlns="http://www.w3.org/2000/svg" xmlns:xlink="http://www.w3.org/1999/xlink" version="1.1" id="Layer_1" x="0px" y="0px" viewBox="0 0 512 512" style="enable-background:new 0 0 512 512;" xml:space="preserve" width="512" height="512">
<g>
	<g>
		<path d="M161.962,432.578c-9.229,0-17.906,3.594-24.432,10.121l-35.726,35.726c-7.604,7.604-17.715,11.792-28.47,11.792    c-10.754,0-20.865-4.188-28.47-11.793c-7.604-7.604-11.792-17.715-11.792-28.47c0-10.754,4.188-20.865,11.792-28.47l5.08-5.081    l0.285,0.285c4.958,4.957,11.469,7.436,17.981,7.436c6.512,0,13.024-2.479,17.981-7.436l4.987-4.987    c2.19,0.846,4.51,1.271,6.833,1.271c4.457,0,8.922-1.565,12.493-4.724l221.92-196.245c3.103-2.744,3.394-7.483,0.65-10.586    c-2.743-3.103-7.484-3.395-10.586-0.65l-161.448,142.77l-48.834-48.834l142.063-160.649c2.744-3.103,2.453-7.843-0.65-10.586    c-3.104-2.744-7.844-2.454-10.586,0.65L47.492,345.237c-4.803,5.432-5.921,12.933-3.452,19.326l-4.987,4.987    c-9.915,9.915-9.915,26.047,0,35.962l0.284,0.284l-5.081,5.081c-21.547,21.546-21.547,56.606,0,78.153    c21.547,21.547,56.607,21.546,78.153,0l35.726-35.726c3.693-3.693,8.603-5.727,13.826-5.727s10.133,2.034,13.826,5.727    c7.624,7.624,7.624,20.028,0,27.652l-14.107,14.108c-2.929,2.929-2.929,7.678,0,10.606c1.464,1.465,3.384,2.197,5.303,2.197    s3.839-0.732,5.303-2.197l14.107-14.108c13.472-13.472,13.472-35.393,0-48.865C179.868,436.172,171.191,432.578,161.962,432.578z     M60.835,406.081L49.66,394.906c-4.066-4.066-4.066-10.683,0-14.75l3.851-3.851l25.925,25.925l-3.852,3.852    C71.518,410.147,64.902,410.147,60.835,406.081z M149.781,353.491l-15.982,14.133l-45.683-45.683l14.133-15.982L149.781,353.491z     M58.729,355.174L78.161,333.2l44.38,44.38l-21.975,19.432c-1.527,1.349-3.855,1.28-5.298-0.163l-36.377-36.377    C57.449,359.029,57.378,356.702,58.729,355.174z"/>
		<path d="M485.414,301.253l-141.959-34.762c-3.344-0.819-6.816-0.071-9.525,2.055c-2.709,2.125-4.263,5.319-4.263,8.763v127.873    c-6.219-3.378-13.968-5.357-22.462-5.357c-21.007,0-37.462,12.101-37.462,27.549s16.456,27.549,37.462,27.549    s37.462-12.101,37.462-27.549V330.36l134.236,32.185v99.715c-6.219-3.378-13.968-5.357-22.462-5.357    c-21.007,0-37.462,12.101-37.462,27.548S435.434,512,456.441,512s37.462-12.101,37.462-27.549v-172.38    C493.903,306.925,490.412,302.476,485.414,301.253z M307.204,439.923c-13.237,0-22.462-6.613-22.462-12.549    s9.225-12.549,22.462-12.549s22.462,6.613,22.462,12.549S320.442,439.923,307.204,439.923z M344.667,282.231l134.236,32.87v32.018    l-134.236-32.185V282.231z M456.441,497c-13.237,0-22.462-6.613-22.462-12.549c0-5.935,9.225-12.548,22.462-12.548    s22.462,6.613,22.462,12.548C478.903,490.387,469.678,497,456.441,497z"/>
		<path d="M261.975,107.881c0.001,0.002,0.001,0.004,0.002,0.006c0.013,0.046,0.027,0.093,0.041,0.139    c0.011,0.037,0.023,0.073,0.034,0.11c0.004,0.013,0.008,0.025,0.012,0.038c0.12,0.37,0.267,0.727,0.439,1.067    c17.41,36.783,47.24,66.607,84.027,84.011c0.301,0.151,0.614,0.282,0.938,0.392c0.003,0.001,0.006,0.002,0.009,0.003    c0.037,0.013,0.074,0.024,0.111,0.036c0.605,0.196,1.221,0.311,1.835,0.349c3.061,0.286,6.113,0.427,9.153,0.427    c25.698,0,50.32-10.113,68.687-28.481c18.364-18.364,28.478-42.78,28.478-68.751s-10.114-50.387-28.478-68.751    C408.899,10.113,384.483,0,358.512,0c-25.97,0-50.387,10.113-68.75,28.478c-20.54,20.54-30.756,48.897-28.054,77.837    C261.74,106.838,261.828,107.363,261.975,107.881z M416.656,39.084c15.531,15.531,24.084,36.181,24.084,58.145    c0,14.977-3.977,29.342-11.431,41.89c-19.316-5.942-44.473-22.95-67.105-45.582c-22.635-22.635-39.641-47.79-45.582-67.106    C329.171,18.977,343.536,15,358.512,15C380.476,15,401.126,23.553,416.656,39.084z M300.368,39.084    c1.164-1.164,2.356-2.288,3.576-3.373c7.746,20.9,24.874,45.652,47.654,68.432c22.778,22.778,47.532,39.907,68.432,47.654    c-1.085,1.22-2.209,2.412-3.373,3.576c-17.116,17.117-40.652,25.76-64.764,23.818c-32.836-15.828-59.515-42.507-75.343-75.343    C274.611,79.741,283.251,56.202,300.368,39.084z"/>
	</g>
</g>















</svg>
